<svg width="160" height="200" viewBox="0 0 160 200" fill="none" xmlns="http://www.w3.org/2000/svg">
  <defs>
    <radialGradient id="spiderRed" cx="0" cy="0" r="1" gradientUnits="userSpaceOnUse" gradientTransform="translate(80 74) rotate(90) scale(42 34)">
      <stop offset="0" stop-color="#FF6F5E"/>
      <stop offset="0.52" stop-color="#E42B39"/>
      <stop offset="1" stop-color="#5B0912"/>
    </radialGradient>
    <radialGradient id="spiderCore" cx="0" cy="0" r="1" gradientUnits="userSpaceOnUse" gradientTransform="translate(80 118) rotate(90) scale(56 40)">
      <stop offset="0" stop-color="#191C2D"/>
      <stop offset="0.56" stop-color="#090B12"/>
      <stop offset="1" stop-color="#010204"/>
    </radialGradient>
    <linearGradient id="legGlow" x1="27" y1="47" x2="133" y2="171" gradientUnits="userSpaceOnUse">
      <stop stop-color="#62B7FF"/>
      <stop offset="0.46" stop-color="#FF4A57"/>
      <stop offset="1" stop-color="#7A1222"/>
    </linearGradient>
    <linearGradient id="legHighlight" x1="47" y1="60" x2="115" y2="145" gradientUnits="userSpaceOnUse">
      <stop stop-color="#C8ECFF"/>
      <stop offset="1" stop-color="#FFD8DC"/>
    </linearGradient>
    <linearGradient id="stripeRed" x1="80" y1="94" x2="80" y2="152" gradientUnits="userSpaceOnUse">
      <stop stop-color="#FF7155"/>
      <stop offset="1" stop-color="#9A1021"/>
    </linearGradient>
    <filter id="softGlow" x="4" y="20" width="152" height="168" filterUnits="userSpaceOnUse" color-interpolation-filters="sRGB">
      <feGaussianBlur stdDeviation="10"/>
    </filter>
    <filter id="depthShadow" x="6" y="32" width="148" height="156" filterUnits="userSpaceOnUse" color-interpolation-filters="sRGB">
      <feOffset dy="10"/>
      <feGaussianBlur stdDeviation="9"/>
      <feColorMatrix type="matrix" values="0 0 0 0 0.0117647 0 0 0 0 0.027451 0 0 0 0 0.0705882 0 0 0 0.36 0"/>
      <feBlend in="SourceGraphic" mode="normal"/>
    </filter>
  </defs>

  <g opacity="0.5" filter="url(#softGlow)">
    <ellipse cx="80" cy="70" rx="30" ry="20" fill="#FF364A"/>
    <ellipse cx="80" cy="114" rx="38" ry="30" fill="#2A6CFF"/>
  </g>

  <g filter="url(#depthShadow)">
    <g fill="none" stroke="url(#legGlow)" stroke-width="7" stroke-linecap="round" stroke-linejoin="round">
      <path d="M74 82L56 68L34 54"/>
      <path d="M70 95L44 88L18 84"/>
      <path d="M68 109L43 116L18 129"/>
      <path d="M72 124L52 145L34 168"/>
      <path d="M86 82L104 68L126 54"/>
      <path d="M90 95L116 88L142 84"/>
      <path d="M92 109L117 116L142 129"/>
      <path d="M88 124L108 145L126 168"/>
    </g>

    <g fill="none" stroke="url(#legHighlight)" stroke-width="1.6" stroke-linecap="round" stroke-linejoin="round" opacity="0.84">
      <path d="M73 81L57 69L38 58"/>
      <path d="M69 94L47 89L23 86"/>
      <path d="M69 110L47 116L24 127"/>
      <path d="M72 123L55 141L40 160"/>
      <path d="M87 81L103 69L122 58"/>
      <path d="M91 94L113 89L137 86"/>
      <path d="M91 110L113 116L136 127"/>
      <path d="M88 123L105 141L120 160"/>
    </g>

    <path d="M80 48L96 57L102 75L92 92H68L58 75L64 57L80 48Z" fill="url(#spiderRed)" stroke="#21040A" stroke-width="3"/>
    <path d="M80 86L106 103L100 147L80 166L60 147L54 103L80 86Z" fill="url(#spiderCore)" stroke="#21040A" stroke-width="3"/>
    <path d="M80 94L91 104L87 148L80 156L73 148L69 104L80 94Z" fill="url(#stripeRed)"/>
    <path d="M68 74L80 82L92 74" stroke="#FFB0B7" stroke-width="2" stroke-linecap="round" opacity="0.78"/>
    <path d="M70 66L61 74L71 76L80 71L80 62L70 66Z" fill="#F8FAFF"/>
    <path d="M90 66L99 74L89 76L80 71L80 62L90 66Z" fill="#F8FAFF"/>
    <path d="M80 93L80 48" stroke="#30050B" stroke-width="2.4" stroke-linecap="round"/>
    <path d="M62 119H98" stroke="#60121D" stroke-width="2.2" stroke-linecap="round" opacity="0.9"/>
    <path d="M65 132H95" stroke="#60121D" stroke-width="2" stroke-linecap="round" opacity="0.74"/>
  </g>
</svg>
